<svg width="800" height="450" viewBox="0 0 800 450" fill="none" xmlns="http://www.w3.org/2000/svg">
  <defs>
    <linearGradient id="bg" x1="0" y1="0" x2="800" y2="450" gradientUnits="userSpaceOnUse">
      <stop stop-color="#182A52"/>
      <stop offset="1" stop-color="#10395F"/>
    </linearGradient>
    <linearGradient id="accent" x1="190" y1="92" x2="620" y2="360" gradientUnits="userSpaceOnUse">
      <stop stop-color="#22D3EE"/>
      <stop offset="1" stop-color="#6366F1"/>
    </linearGradient>
  </defs>

  <rect width="800" height="450" rx="24" fill="url(#bg)"/>
  <circle cx="120" cy="70" r="95" fill="#67E8F9" fill-opacity="0.25"/>
  <circle cx="705" cy="390" r="145" fill="#818CF8" fill-opacity="0.22"/>

  <rect x="70" y="95" width="300" height="270" rx="22" fill="#0C1A30" stroke="#67E8F9" stroke-opacity="0.8"/>
  <rect x="95" y="124" width="250" height="26" rx="10" fill="#284265"/>
  <rect x="95" y="165" width="250" height="78" rx="14" fill="#132640" stroke="#22D3EE" stroke-opacity="0.8"/>
  <rect x="95" y="258" width="117" height="48" rx="12" fill="#1B3554"/>
  <rect x="228" y="258" width="117" height="48" rx="12" fill="#1B3554"/>
  <rect x="95" y="318" width="250" height="30" rx="12" fill="url(#accent)"/>

  <rect x="405" y="65" width="325" height="320" rx="22" fill="#0E1F35" stroke="#818CF8" stroke-opacity="0.9"/>
  <rect x="432" y="95" width="271" height="30" rx="10" fill="#243D5E"/>
  <rect x="432" y="140" width="124" height="96" rx="14" fill="#17304B" stroke="#22D3EE" stroke-opacity="0.85"/>
  <rect x="579" y="140" width="124" height="96" rx="14" fill="#17304B" stroke="#22D3EE" stroke-opacity="0.85"/>
  <rect x="432" y="250" width="271" height="16" rx="8" fill="#4A6485"/>
  <rect x="432" y="274" width="232" height="16" rx="8" fill="#4A6485" fill-opacity="0.8"/>
  <rect x="432" y="298" width="190" height="16" rx="8" fill="#4A6485" fill-opacity="0.68"/>
  <rect x="580" y="330" width="123" height="36" rx="10" fill="url(#accent)"/>

  <text x="400" y="47" text-anchor="middle" fill="#F5FAFF" font-size="34" font-family="Segoe UI, Arial" font-weight="700">HostelEase App</text>
  <text x="400" y="420" text-anchor="middle" fill="#D8E8FF" font-size="20" font-family="Segoe UI, Arial">Mobile & Admin Control Panel</text>
</svg>
